# xmcd
#
# Track frame offsets:
#	150
#	17658
#	33017
#	45682
#	56644
#	71017
#	86572
#	98255
#	113657
#	130556
#	144224
#
# Disc length: 2146 seconds
#
# Revision: 1
# Processed by: cddbd v1.5.2PL0 Copyright (c) Steve Scherf et al.
# Submitted via: audiograbber 1.83.01
#
DISCID=7d08600b
DTITLE=Bianca De Leon - Dangerous Endeavor
DYEAR=2018
DGENRE=Country
TTITLE0=Thorns of a Different Rose
TTITLE1=Has It Really Come to This
TTITLE2=If You Just Had a Mirror
TTITLE3=Hollow Victory
TTITLE4=That Vintage '67 Cadillac
TTITLE5=Let's Put the Dirty Back in Dancin'
TTITLE6=(I Heard That) Lonesome Whistle
TTITLE7=Sad Corners of Her Eyes
TTITLE8=I'm Waiting for a Miracle
TTITLE9=White Freightliner
TTITLE10=Dangerous Endeavor
EXTD=
EXTT0=
EXTT1=
EXTT2=
EXTT3=
EXTT4=
EXTT5=
EXTT6=
EXTT7=
EXTT8=
EXTT9=
EXTT10=
PLAYORDER=
